# Blender v2.80 (sub 75) OBJ File: ''
# www.blender.org
v 0.038143 -0.466171 -0.065869
v 0.038143 -0.466171 0.074060
v 0.038143 -0.326242 -0.065869
v 0.038143 -0.219759 0.066552
v 0.038143 0.021874 -0.001706
v 0.038143 0.197297 -0.173034
v 0.038143 0.270333 -0.192146
v 0.038143 0.401388 0.132079
v 0.038143 0.262825 0.327297
v 0.038143 0.477155 0.225934
v 0.038143 0.551556 0.003072
v 0.038143 0.471694 -0.231053
v 0.038143 -0.113277 -0.061773
v -0.038143 -0.466171 -0.065869
v -0.038143 -0.326242 -0.065869
v -0.038143 -0.219759 0.066552
v -0.038143 -0.087444 0.051442
v -0.038143 0.021874 -0.001706
v -0.038143 0.197297 -0.173034
v -0.038143 0.396269 -0.136175
v -0.038143 0.450534 0.001024
v -0.038143 0.401388 0.132079
v -0.038143 0.247808 0.201020
v -0.038143 0.471694 -0.231053
v -0.038143 0.278524 -0.318423
v -0.038143 0.157707 -0.287707
v -0.038143 -0.055258 -0.089077
v -0.038143 -0.219759 -0.051535
v 0.038143 -0.219759 -0.051535
v 0.038143 -0.087444 0.051442
v -0.038143 0.270333 -0.192146
v 0.038143 0.396269 -0.136175
v 0.038143 0.450534 0.001024
v 0.038143 0.247808 0.201020
v -0.038143 0.262825 0.327297
v -0.038143 0.477155 0.225934
v -0.038143 0.551556 0.003072
v 0.038143 0.278524 -0.318423
v 0.038143 0.157707 -0.287707
v 0.038143 -0.055258 -0.089077
v -0.038143 -0.113277 -0.061773
v -0.038143 -0.466171 0.074060
v -0.038143 -0.326242 0.074060
v 0.038143 -0.326242 0.074060
v -0.050000 -0.463082 -1.054487
v -0.050000 -0.623706 -0.970605
v -0.050000 -0.543394 -1.084187
v -0.050000 -0.602186 -1.053484
v -0.050000 0.890669 0.111845
v -0.050000 0.890669 -0.111845
v -0.050000 0.949462 0.040938
v -0.050000 0.949462 -0.040938
v -0.050000 -0.623706 0.970605
v -0.050000 -0.463082 1.054487
v -0.050000 -0.602186 1.053484
v -0.050000 -0.543394 1.084187
v 0.050000 -0.623706 -0.970605
v 0.050000 -0.463082 -1.054487
v 0.050000 -0.602186 -1.053484
v 0.050000 -0.543394 -1.084187
v 0.050000 0.890669 -0.111845
v 0.050000 0.890669 0.111845
v 0.050000 0.949462 -0.040938
v 0.050000 0.949462 0.040938
v 0.050000 -0.463082 1.054487
v 0.050000 -0.623706 0.970605
v 0.050000 -0.543394 1.084187
v 0.050000 -0.602186 1.053484
v 0.050000 0.807790 0.032468
v 0.050000 0.807810 -0.032497
v 0.050000 0.870968 -0.052964
v 0.050000 0.904638 -0.021867
v 0.050000 0.904638 0.021867
v 0.050000 0.870968 0.052964
v 0.050000 0.826624 -0.000008
v 0.050000 -0.533116 0.934375
v 0.050000 -0.487629 0.957768
v 0.050000 -0.491939 1.028002
v 0.050000 -0.539177 1.045755
v 0.050000 -0.574285 1.027946
v 0.050000 -0.587671 0.978412
v 0.050000 -0.519781 0.964365
v -0.050000 -0.534146 -0.936446
v -0.050000 -0.488693 -0.959842
v -0.050000 -0.492117 -1.029078
v -0.050000 -0.539739 -1.047867
v -0.050000 -0.575675 -1.029642
v -0.050000 -0.588428 -0.979149
v -0.050000 -0.520833 -0.966433
v -0.050000 0.810104 -0.032461
v -0.050000 0.810104 0.032461
v -0.050000 0.872290 0.053288
v -0.050000 0.906761 0.022321
v -0.050000 0.906761 -0.022321
v -0.050000 0.872290 -0.053288
v -0.050000 0.828935 -0.000000
v -0.050000 -0.488684 0.959835
v -0.050000 -0.534146 0.936434
v -0.050000 -0.588428 0.979149
v -0.050000 -0.575675 1.029642
v -0.050000 -0.539739 1.047867
v -0.050000 -0.492117 1.029078
v -0.050000 -0.520831 0.966427
v 0.050000 -0.488719 -0.959806
v 0.050000 -0.534116 -0.936446
v 0.050000 -0.588428 -0.979149
v 0.050000 -0.575675 -1.029642
v 0.050000 -0.539739 -1.047867
v 0.050000 -0.492117 -1.029078
v 0.050000 -0.520832 -0.966422
vt 0.036783 0.712654
vt 0.000257 0.757250
vt 0.004461 0.697808
vt 0.213977 0.621627
vt 0.200292 0.678632
vt 0.166752 0.672657
vt 0.203277 0.717253
vt 0.194694 0.757872
vt 0.217762 0.732760
vt 0.311317 0.773180
vt 0.272268 0.783996
vt 0.283568 0.753249
vt 0.332732 0.803882
vt 0.286772 0.794695
vt 0.333246 0.649579
vt 0.372577 0.610248
vt 0.372577 0.649579
vt 0.265943 0.641524
vt 0.226969 0.646882
vt 0.373091 0.610248
vt 0.412421 0.649579
vt 0.373091 0.649579
vt 0.047483 0.808281
vt 0.099449 0.788383
vt 0.112535 0.819659
vt 0.028200 0.672035
vt 0.885640 0.802641
vt 0.907082 0.733720
vt 0.907082 0.802641
vt 0.166238 0.626026
vt 0.120277 0.635212
vt 0.137036 0.610248
vt 0.144822 0.656727
vt 0.105773 0.645911
vt 0.137017 0.759616
vt 0.303512 0.670291
vt 0.279029 0.610248
vt 0.332732 0.649706
vt 0.438958 0.671534
vt 0.472149 0.650092
vt 0.472149 0.671534
vt 0.885640 0.836807
vt 0.907082 0.874239
vt 0.885640 0.874239
vt 0.907082 0.836807
vt 0.885640 0.712500
vt 0.885640 0.733720
vt 0.885640 0.673764
vt 0.907082 0.712500
vt 0.885640 0.632294
vt 0.907082 0.673764
vt 0.885640 0.592952
vt 0.907082 0.632294
vt 0.885640 0.545635
vt 0.907082 0.592952
vt 0.417002 0.650092
vt 0.438444 0.685836
vt 0.417002 0.685836
vt 0.914317 0.899376
vt 0.935759 0.966016
vt 0.914317 0.966016
vt 0.914317 0.833336
vt 0.935759 0.899376
vt 0.914317 0.763806
vt 0.935759 0.833336
vt 0.914317 0.704215
vt 0.935759 0.763806
vt 0.914317 0.669177
vt 0.935759 0.704215
vt 0.935759 0.587322
vt 0.914317 0.587322
vt 0.051267 0.697147
vt 0.914317 0.569299
vt 0.914317 0.539231
vt 0.935759 0.569299
vt 0.373091 0.650092
vt 0.394533 0.689423
vt 0.373091 0.689423
vt 0.333246 0.671534
vt 0.372577 0.650092
vt 0.372577 0.671534
vt 0.412935 0.610248
vt 0.434377 0.649579
vt 0.412935 0.649579
vt 0.395047 0.650092
vt 0.416488 0.689423
vt 0.395047 0.689423
vt 0.033797 0.751275
vt 0.442950 0.293481
vt 0.455549 0.311134
vt 0.442950 0.316495
vt 0.879078 0.008887
vt 0.861367 0.011059
vt 0.862553 0.000257
vt 0.885126 0.032183
vt 0.871235 0.016065
vt 0.848090 0.016049
vt 0.839979 0.008605
vt 0.067035 0.820173
vt 0.612661 0.848281
vt 0.067035 0.848281
vt 0.419862 0.000257
vt 0.405450 0.015747
vt 0.397289 0.008605
vt 0.914317 0.463923
vt 0.942425 0.000257
vt 0.942425 0.463923
vt 0.000257 0.316501
vt 0.021948 0.319972
vt 0.016782 0.336432
vt 0.971047 0.067036
vt 0.942939 0.530702
vt 0.942939 0.067036
vt 0.971632 0.009479
vt 0.999670 0.457525
vt 0.971561 0.458051
vt 0.465013 0.290100
vt 0.455549 0.298842
vt 0.442436 0.032182
vt 0.442436 0.577809
vt 0.417263 0.568205
vt 0.436387 0.008887
vt 0.432520 0.029780
vt 0.428935 0.015588
vt 0.404485 0.574782
vt 0.397289 0.601386
vt 0.012259 0.298721
vt 0.012259 0.311269
vt 0.000257 0.293488
vt 0.021948 0.290017
vt 0.436387 0.601104
vt 0.432520 0.580211
vt 0.418835 0.599525
vt 0.428935 0.594403
vt 0.419862 0.609734
vt 0.405450 0.594244
vt 0.879077 0.601106
vt 0.875210 0.580212
vt 0.885126 0.577810
vt 0.861525 0.599527
vt 0.871626 0.594404
vt 0.862552 0.609736
vt 0.848139 0.594245
vt 0.942939 0.541764
vt 0.971068 0.989749
vt 0.942959 0.990329
vt 0.459475 0.336426
vt 0.847184 0.574775
vt 0.839978 0.601387
vt 0.465013 0.319876
vt 0.885693 0.535899
vt 0.913749 0.010057
vt 0.913801 0.535896
vt 0.859664 0.042366
vt 0.016782 0.273557
vt 0.404487 0.035207
vt 0.042968 0.820173
vt 0.024325 0.848281
vt 0.024325 0.820173
vt 0.000257 0.848281
vt 0.000257 0.820173
vt 0.971047 0.042968
vt 0.942939 0.042968
vt 0.971047 0.024325
vt 0.942939 0.024325
vt 0.971047 0.000257
vt 0.914317 0.538717
vt 0.942425 0.512827
vt 0.942425 0.538717
vt 0.914317 0.512827
vt 0.942425 0.489813
vt 0.418835 0.010466
vt 0.477477 0.304990
vt 0.855915 0.033936
vt 0.413521 0.033355
vt 0.034134 0.304995
vt 0.413520 0.576635
vt 0.856211 0.576634
vt 0.999740 0.009483
vt 0.971635 0.000257
vt 0.999743 0.000267
vt 0.885695 0.545121
vt 0.913803 0.545112
vt 0.999743 0.468077
vt 0.971633 0.468599
vt 0.971125 0.531741
vt 0.943014 0.531216
vt 0.885640 0.009481
vt 0.913803 0.000831
vt 0.971125 0.998974
vt 0.459475 0.273550
vt 0.846878 0.035790
vt 0.482771 0.295861
vt 0.039427 0.295871
vt 0.417263 0.041783
vt 0.874998 0.029988
vt 0.170956 0.732100
vt 0.303531 0.819659
vt 0.333246 0.610248
vt 0.412421 0.610248
vt 0.060474 0.783026
vt 0.117073 0.676659
vt 0.166238 0.780202
vt 0.438958 0.650092
vt 0.907082 0.545635
vt 0.438444 0.650092
vt 0.935759 0.669177
vt 0.935759 0.539231
vt 0.394533 0.650092
vt 0.333246 0.650092
vt 0.434377 0.610248
vt 0.416488 0.650092
vt 0.612661 0.820173
vt 0.914318 0.000257
vt 0.971046 0.530702
vt 0.039427 0.314119
vt 0.971049 0.542293
vt 0.482766 0.314123
vt 0.859945 0.568209
vt 0.042968 0.848281
vt 0.942939 0.000257
vt 0.914317 0.489813
vt 0.885694 0.000257
vt 0.943015 0.999553
vn -1.0000 0.0000 0.0000
vn 1.0000 -0.0000 -0.0000
vn 0.0000 0.6987 0.7154
vn 0.0000 -1.0000 0.0000
vn 0.0000 0.1135 0.9935
vn 0.0000 0.4372 0.8993
vn 0.0000 0.2532 0.9674
vn 0.0000 -0.4061 0.9138
vn 0.0000 -0.9299 0.3678
vn 0.0000 -0.9363 -0.3511
vn 0.0000 -0.4095 -0.9123
vn 0.0000 -0.9930 0.1181
vn 0.0000 0.4275 0.9040
vn 0.0000 0.9485 0.3167
vn 0.0000 0.9465 -0.3228
vn 0.0000 0.4121 -0.9111
vn 0.0000 -0.2464 -0.9692
vn 0.0000 -0.6821 -0.7313
vn 0.0000 -0.4258 -0.9048
vn 0.0000 -0.0957 -0.9954
vn 0.0000 0.0000 1.0000
vn 0.0000 1.0000 0.0000
vn 0.0000 0.0000 -1.0000
vn 0.0000 0.5714 -0.8206
vn 0.0000 0.5714 0.8206
vn -0.0130 -0.5811 0.8138
vn -0.0107 -0.5811 -0.8138
vn -0.0003 1.0000 -0.0005
vn 0.0000 -0.9679 -0.2513
vn 0.0000 -0.4629 -0.8864
vn 0.0000 0.3469 -0.9379
vn 0.0000 0.3469 0.9379
vn 0.0000 -0.4629 0.8864
vn 0.0000 -0.9679 0.2513
vn -0.0000 0.7698 0.6383
vn 0.0000 0.7698 -0.6383
vn -0.0001 -0.2018 0.9794
vn -0.0001 0.9142 0.4052
vn -0.0199 -0.8648 0.5017
vn -0.0200 -0.8648 -0.5017
vn -0.0178 0.9136 -0.4062
vn -0.0181 -0.2010 -0.9794
vn -0.0004 -0.5817 0.8134
vn -0.0134 -0.5812 -0.8137
vn -0.0103 0.9999 0.0000
vn -0.0004 -0.2009 0.9796
vn -0.0003 0.9140 0.4058
vn -0.0197 -0.8652 0.5010
vn -0.0200 -0.8649 -0.5016
vn -0.0180 0.9138 -0.4057
vn -0.0181 -0.2008 -0.9795
s off
f 31/1/1 24/2/1 25/3/1
f 11/4/2 32/5/2 12/6/2
f 7/7/2 12/6/2 32/5/2
f 39/8/2 7/7/2 6/9/2
f 30/10/2 40/11/2 5/12/2
f 4/13/2 13/14/2 30/10/2
f 1/15/2 44/16/2 2/17/2
f 11/4/2 8/18/2 33/19/2
f 42/20/1 15/21/1 14/22/1
f 37/23/1 22/24/1 36/25/1
f 26/26/1 31/1/1 25/3/1
f 5/27/3 19/28/3 18/29/3
f 16/30/1 41/31/1 28/32/1
f 40/11/2 6/9/2 5/12/2
f 17/33/1 27/34/1 41/31/1
f 23/35/1 36/25/1 22/24/1
f 34/36/2 10/37/2 9/38/2
f 4/39/4 28/40/4 29/41/4
f 30/42/5 16/43/5 4/44/5
f 5/27/6 17/45/6 30/42/6
f 7/46/7 19/28/7 6/47/7
f 32/48/8 31/49/8 7/46/8
f 33/50/9 20/51/9 32/48/9
f 8/52/10 21/53/10 33/50/10
f 34/54/11 22/55/11 8/52/11
f 9/56/12 23/57/12 34/58/12
f 10/59/13 35/60/13 9/61/13
f 11/62/14 36/63/14 10/59/14
f 12/64/15 37/65/15 11/62/15
f 38/66/16 24/67/16 12/64/16
f 39/68/17 25/69/17 38/66/17
f 27/70/18 39/68/18 40/71/18
f 27/34/1 19/72/1 26/26/1
f 13/73/19 27/70/19 40/71/19
f 29/74/20 41/75/20 13/73/20
f 2/76/4 14/77/4 1/78/4
f 44/79/21 42/80/21 2/81/21
f 3/82/22 43/83/22 44/84/22
f 1/85/23 15/86/23 3/87/23
f 20/88/1 37/23/1 24/2/1
f 64/89/2 72/90/2 63/91/2
f 68/92/2 79/93/2 67/94/2
f 66/95/2 80/96/2 68/92/2
f 67/94/2 78/97/2 65/98/2
f 57/99/4 53/100/4 46/101/4
f 47/102/1 85/103/1 45/104/1
f 61/105/24 45/106/24 50/107/24
f 51/108/1 92/109/1 49/110/1
f 65/111/25 49/112/25 54/113/25
f 84/114/26 70/115/26 90/116/26
f 64/89/2 74/117/2 73/118/2
f 46/119/1 53/120/1 98/121/1
f 48/122/1 88/123/1 87/124/1
f 49/110/1 97/125/1 54/126/1
f 51/108/1 94/127/1 93/128/1
f 52/129/1 95/130/1 94/127/1
f 55/131/1 99/132/1 53/120/1
f 55/131/1 101/133/1 100/134/1
f 56/135/1 102/136/1 101/133/1
f 59/137/2 106/138/2 57/139/2
f 59/137/2 108/140/2 107/141/2
f 60/142/2 109/143/2 108/140/2
f 91/144/27 77/145/27 97/146/27
f 61/147/2 104/148/2 58/149/2
f 63/91/2 71/150/2 61/147/2
f 83/151/28 76/152/28 105/153/28
f 57/139/2 76/154/2 66/95/2
f 50/155/1 45/104/1 84/156/1
f 46/101/29 59/157/29 57/99/29
f 59/157/30 47/158/30 60/159/30
f 60/159/31 45/160/31 58/161/31
f 54/113/32 67/162/32 65/111/32
f 56/163/33 68/164/33 67/162/33
f 55/165/34 66/166/34 68/164/34
f 62/167/35 51/168/35 49/169/35
f 64/170/22 52/171/22 51/168/22
f 52/171/36 61/105/36 50/107/36
f 48/122/1 86/172/1 47/102/1
f 75/173/2 71/150/2 72/90/2
f 82/174/2 78/97/2 79/93/2
f 89/175/1 85/103/1 86/172/1
f 96/176/1 92/109/1 93/128/1
f 103/177/1 99/132/1 100/134/1
f 110/178/2 106/138/2 107/141/2
f 104/179/37 89/180/37 110/181/37
f 89/182/38 105/153/38 110/183/38
f 90/116/39 75/184/39 96/185/39
f 75/186/40 91/144/40 96/187/40
f 98/188/41 82/189/41 76/152/41
f 82/190/42 97/146/42 77/145/42
f 62/191/2 65/98/2 77/192/2
f 75/173/2 74/117/2 69/193/2
f 73/118/2 75/173/2 72/90/2
f 96/176/1 95/130/1 90/194/1
f 94/127/1 96/176/1 93/128/1
f 103/177/1 102/136/1 97/125/1
f 101/133/1 103/177/1 100/134/1
f 89/175/1 86/172/1 87/124/1
f 89/175/1 88/123/1 83/195/1
f 110/178/2 107/141/2 108/140/2
f 110/178/2 109/143/2 104/148/2
f 82/174/2 79/93/2 80/96/2
f 82/174/2 81/196/2 76/154/2
f 31/1/1 20/88/1 24/2/1
f 11/4/2 33/19/2 32/5/2
f 7/7/2 38/197/2 12/6/2
f 39/8/2 38/197/2 7/7/2
f 30/10/2 13/14/2 40/11/2
f 4/13/2 29/198/2 13/14/2
f 1/15/2 3/199/2 44/16/2
f 11/4/2 10/37/2 8/18/2
f 42/20/1 43/200/1 15/21/1
f 37/23/1 21/201/1 22/24/1
f 26/26/1 19/72/1 31/1/1
f 5/27/3 6/47/3 19/28/3
f 16/30/1 17/33/1 41/31/1
f 40/11/2 39/8/2 6/9/2
f 17/33/1 18/202/1 27/34/1
f 23/35/1 35/203/1 36/25/1
f 34/36/2 8/18/2 10/37/2
f 4/39/4 16/204/4 28/40/4
f 30/42/5 17/45/5 16/43/5
f 5/27/6 18/29/6 17/45/6
f 7/46/7 31/49/7 19/28/7
f 32/48/8 20/51/8 31/49/8
f 33/50/9 21/53/9 20/51/9
f 8/52/10 22/55/10 21/53/10
f 34/54/11 23/205/11 22/55/11
f 9/56/12 35/206/12 23/57/12
f 10/59/13 36/63/13 35/60/13
f 11/62/14 37/65/14 36/63/14
f 12/64/15 24/67/15 37/65/15
f 38/66/16 25/69/16 24/67/16
f 39/68/17 26/207/17 25/69/17
f 27/70/18 26/207/18 39/68/18
f 27/34/1 18/202/1 19/72/1
f 13/73/19 41/75/19 27/70/19
f 29/74/20 28/208/20 41/75/20
f 2/76/4 42/209/4 14/77/4
f 44/79/21 43/210/21 42/80/21
f 3/82/22 15/211/22 43/83/22
f 1/85/23 14/212/23 15/86/23
f 20/88/1 21/201/1 37/23/1
f 64/89/2 73/118/2 72/90/2
f 68/92/2 80/96/2 79/93/2
f 66/95/2 81/196/2 80/96/2
f 67/94/2 79/93/2 78/97/2
f 57/99/4 66/213/4 53/100/4
f 47/102/1 86/172/1 85/103/1
f 61/105/24 58/214/24 45/106/24
f 51/108/1 93/128/1 92/109/1
f 65/111/25 62/215/25 49/112/25
f 84/114/43 104/179/43 70/115/43
f 64/89/2 62/191/2 74/117/2
f 53/120/1 99/132/1 98/121/1
f 98/121/1 83/195/1 46/119/1
f 83/195/1 88/123/1 46/119/1
f 48/122/1 46/119/1 88/123/1
f 49/110/1 92/109/1 91/216/1
f 91/216/1 97/125/1 49/110/1
f 97/125/1 102/136/1 54/126/1
f 51/108/1 52/129/1 94/127/1
f 52/129/1 50/155/1 95/130/1
f 55/131/1 100/134/1 99/132/1
f 55/131/1 56/135/1 101/133/1
f 56/135/1 54/126/1 102/136/1
f 59/137/2 107/141/2 106/138/2
f 59/137/2 60/142/2 108/140/2
f 60/142/2 58/149/2 109/143/2
f 91/144/44 69/217/44 77/145/44
f 61/147/2 71/150/2 70/218/2
f 70/218/2 104/148/2 61/147/2
f 104/148/2 109/143/2 58/149/2
f 63/91/2 72/90/2 71/150/2
f 83/151/45 98/188/45 76/152/45
f 57/139/2 106/138/2 105/219/2
f 105/219/2 76/154/2 57/139/2
f 76/154/2 81/196/2 66/95/2
f 45/104/1 85/103/1 84/156/1
f 84/156/1 90/194/1 50/155/1
f 90/194/1 95/130/1 50/155/1
f 46/101/29 48/220/29 59/157/29
f 59/157/30 48/220/30 47/158/30
f 60/159/31 47/158/31 45/160/31
f 54/113/32 56/163/32 67/162/32
f 56/163/33 55/165/33 68/164/33
f 55/165/34 53/221/34 66/166/34
f 62/167/35 64/170/35 51/168/35
f 64/170/22 63/222/22 52/171/22
f 52/171/36 63/222/36 61/105/36
f 48/122/1 87/124/1 86/172/1
f 75/173/2 70/218/2 71/150/2
f 82/174/2 77/192/2 78/97/2
f 89/175/1 84/156/1 85/103/1
f 96/176/1 91/216/1 92/109/1
f 103/177/1 98/121/1 99/132/1
f 110/178/2 105/219/2 106/138/2
f 104/179/46 84/114/46 89/180/46
f 89/182/47 83/151/47 105/153/47
f 90/116/48 70/115/48 75/184/48
f 75/186/49 69/217/49 91/144/49
f 98/188/50 103/223/50 82/189/50
f 82/190/51 103/224/51 97/146/51
f 65/98/2 78/97/2 77/192/2
f 77/192/2 69/193/2 62/191/2
f 69/193/2 74/117/2 62/191/2
f 75/173/2 73/118/2 74/117/2
f 96/176/1 94/127/1 95/130/1
f 103/177/1 101/133/1 102/136/1
f 89/175/1 87/124/1 88/123/1
f 110/178/2 108/140/2 109/143/2
f 82/174/2 80/96/2 81/196/2
